Coordinates
version=1
nRows=12
nColumns=19
inDegrees=yes

Units are S.I. units (second, meters, Newtons, ...)
If the header above contains a line with 'inDegrees', this indicates whether rotational values are in degrees (yes) or radians (no).

endheader
time	pelvis_tilt	pelvis_list	pelvis_rotation	pelvis_tx	pelvis_ty	pelvis_tz	hip_flexion_r	hip_adduction_r	hip_rotation_r	knee_angle_r	knee_angle_r_beta	ankle_angle_r	hip_flexion_l	hip_adduction_l	hip_rotation_l	knee_angle_l	knee_angle_l_beta	ankle_angle_l
     13.52666667	     -4.51728456	      6.90206343	      1.74942202	      2.23040826	      0.95888740	      1.03152305	    -12.14042213	    -15.87825211	    -24.90532076	     58.33257065	      1.01809542	    -12.89807021	     21.42680404	      9.34473782	     -5.19997988	      6.29966250	      0.10994985	      6.30674464
     13.53333333	     -4.55567191	      7.17330390	      2.27335562	      2.22948979	      0.95482756	      1.03014193	    -10.54422892	    -16.46844703	    -24.15132392	     61.87516584	      1.07992537	    -12.77813781	     22.17906633	      9.60285433	     -5.64985270	      9.69939359	      0.16928635	      6.20838377
     13.54000000	     -4.71087952	      7.27601165	      2.80182657	      2.22825281	      0.95033321	      1.02889461	     -8.62610251	    -16.80506328	    -23.19727938	     65.41035770	      1.14162611	    -12.76609394	     23.27681461	      9.61384973	     -6.23990498	     13.76898332	      0.24031409	      6.32263346
     13.54666667	     -4.93600056	      7.22574786	      3.36259341	      2.22679677	      0.94543754	      1.02780725	     -6.48883832	    -16.91356710	    -22.17133521	     68.89193699	      1.20239113	    -12.81469294	     24.52841576	      9.42280100	     -6.79770126	     18.18879332	      0.31745433	      6.65520477
     13.55333333	     -5.10226386	      7.02920493	      3.86767304	      2.22515338	      0.94038535	      1.02698135	     -4.26352357	    -16.78736537	    -21.04039779	     72.26468720	      1.26125672	    -12.86096762	     25.65904906	      9.03940271	     -7.21506528	     22.62209781	      0.39483009	      7.24649265
     13.56000000	     -5.20322858	      6.71197331	      4.32721069	      2.22339163	      0.93534749	      1.02643797	     -1.99173803	    -16.45663821	    -19.87827580	     75.48157628	      1.31740203	    -12.88546226	     26.57494012	      8.52468641	     -7.41783486	     26.86512524	      0.46888489	      8.16210186
     13.56666667	     -5.20300684	      6.34537311	      4.73083938	      2.22148932	      0.93052202	      1.02611231	      0.27350354	    -16.01167509	    -18.71531010	     78.51987686	      1.37043038	    -12.83796239	     27.16532305	      7.97440906	     -7.40127477	     30.74265296	      0.53656051	      9.39751395
     13.57333333	     -4.41280104	      6.36287514	      5.13122929	      2.21968293	      0.92679263	      1.02589041	      1.57224731	    -15.95468393	    -17.83463083	     81.25927947	      1.41824197	    -12.66486457	     26.51238945	      7.84250670	     -7.22447510	     33.95216394	      0.59257705	     10.98032926
     13.58000000	     -5.11986855	      5.54135421	      5.44099105	      2.21719317	      0.92181738	      1.02588603	      4.95861075	    -14.93218847	    -16.51951100	     84.00614876	      1.46618389	    -12.46752035	     27.51798053	      6.92921446	     -6.77833264	     37.15425209	      0.64846403	     12.81756468
     13.58666667	     -4.98430970	      5.12282774	      5.74084677	      2.21487867	      0.91828286	      1.02591469	      7.27383446	    -14.32920022	    -15.52080091	     86.36059689	      1.50727676	    -12.11864949	     27.17576994	      6.44406983	     -6.24670340	     39.59055292	      0.69098550	     14.87160308
     13.59333333	     -4.38504700	      5.00487892	      6.07698613	      2.21272695	      0.91589748	      1.02589802	      8.97201017	    -14.08200344	    -14.76375816	     88.36721238	      1.54229881	    -11.67732614	     25.91639432	      6.29686763	     -5.61831568	     41.30535338	      0.72091442	     17.08283671
     13.60000000	     -4.81207521	      4.40968056	      6.27940366	      2.21030514	      0.91297625	      1.02601949	     12.03408111	    -13.27397704	    -13.76781694	     90.20030802	      1.57429236	    -11.19845038	     25.67265724	      5.68440471	     -4.99765940	     42.78959608	      0.74681934	     19.22474578
